name rise44.8762peak52.3436fall86.788.mot
datacolumns 19
datarows 36
range 19.54659200000000 19.60492400000000
endheader
time	ground_force1_vx	ground_force1_vy	ground_force1_vz	ground_force1_px	ground_force1_py	ground_force1_pz	ground_force2_vx	ground_force2_vy	ground_force2_vz	ground_force2_px	ground_force2_py	ground_force2_pz	ground_torque1_x	ground_torque1_y	ground_torque1_z	ground_torque2_x	ground_torque2_y	ground_torque2_z	
19.54659200000000	-14.73241800000000	718.33551699999998	60.31009300000000	0.13261600000000	0.00000000000000	0.14433900000000	0.00000000000000	0.00000000000000	0.00000000000000	0.00000000000000	0.00000000000000	0.00000000000000	0.00000000000000	21.01277800000000	0.00000000000000	0.00000000000000	0.00000000000000	0.00000000000000	
19.54825600000000	-15.39635700000000	719.46600999999998	60.32927500000000	0.13143700000000	0.00000000000000	0.14423400000000	0.00000000000000	0.00000000000000	0.00000000000000	0.00000000000000	0.00000000000000	0.00000000000000	0.00000000000000	21.09169200000000	0.00000000000000	0.00000000000000	0.00000000000000	0.00000000000000	
19.54992100000000	-16.06953400000000	720.61283100000003	60.34808100000000	0.13024100000000	0.00000000000000	0.14412900000000	0.00000000000000	0.00000000000000	0.00000000000000	0.00000000000000	0.00000000000000	0.00000000000000	0.00000000000000	21.17233100000000	0.00000000000000	0.00000000000000	0.00000000000000	0.00000000000000	
19.55159500000000	-16.75150000000000	721.77591800000005	60.36662500000000	0.12902900000000	0.00000000000000	0.14402400000000	0.00000000000000	0.00000000000000	0.00000000000000	0.00000000000000	0.00000000000000	0.00000000000000	0.00000000000000	21.25468100000000	0.00000000000000	0.00000000000000	0.00000000000000	0.00000000000000	
19.55325500000000	-17.44176000000000	722.95525499999997	60.38502900000000	0.12780400000000	0.00000000000000	0.14391700000000	0.00000000000000	0.00000000000000	0.00000000000000	0.00000000000000	0.00000000000000	0.00000000000000	0.00000000000000	21.33872900000000	0.00000000000000	0.00000000000000	0.00000000000000	0.00000000000000	
19.55492100000000	-18.13978100000000	724.15085999999997	60.40342500000000	0.12656600000000	0.00000000000000	0.14381000000000	0.00000000000000	0.00000000000000	0.00000000000000	0.00000000000000	0.00000000000000	0.00000000000000	0.00000000000000	21.42445400000000	0.00000000000000	0.00000000000000	0.00000000000000	0.00000000000000	
19.55659000000000	-18.84498800000000	725.36278600000003	60.42195400000000	0.12531800000000	0.00000000000000	0.14370300000000	0.00000000000000	0.00000000000000	0.00000000000000	0.00000000000000	0.00000000000000	0.00000000000000	0.00000000000000	21.51183200000000	0.00000000000000	0.00000000000000	0.00000000000000	0.00000000000000	
19.55826100000000	-19.55677100000000	726.59110699999997	60.44076200000000	0.12405900000000	0.00000000000000	0.14359500000000	0.00000000000000	0.00000000000000	0.00000000000000	0.00000000000000	0.00000000000000	0.00000000000000	0.00000000000000	21.60083200000000	0.00000000000000	0.00000000000000	0.00000000000000	0.00000000000000	
19.55992200000000	-20.27448200000000	727.83591899999999	60.46000100000000	0.12279200000000	0.00000000000000	0.14348600000000	0.00000000000000	0.00000000000000	0.00000000000000	0.00000000000000	0.00000000000000	0.00000000000000	0.00000000000000	21.69141700000000	0.00000000000000	0.00000000000000	0.00000000000000	0.00000000000000	
19.56159500000000	-20.99744100000000	729.09733300000005	60.47982600000000	0.12151900000000	0.00000000000000	0.14337700000000	0.00000000000000	0.00000000000000	0.00000000000000	0.00000000000000	0.00000000000000	0.00000000000000	0.00000000000000	21.78354200000000	0.00000000000000	0.00000000000000	0.00000000000000	0.00000000000000	
19.56325300000000	-21.72493600000000	730.37546599999996	60.50039400000000	0.12024200000000	0.00000000000000	0.14326800000000	0.00000000000000	0.00000000000000	0.00000000000000	0.00000000000000	0.00000000000000	0.00000000000000	0.00000000000000	21.87715600000000	0.00000000000000	0.00000000000000	0.00000000000000	0.00000000000000	
19.56492200000000	-22.45622800000000	731.67043500000000	60.52186400000000	0.11896200000000	0.00000000000000	0.14315700000000	0.00000000000000	0.00000000000000	0.00000000000000	0.00000000000000	0.00000000000000	0.00000000000000	0.00000000000000	21.97219800000000	0.00000000000000	0.00000000000000	0.00000000000000	0.00000000000000	
19.56659000000000	-23.19054900000000	732.98235499999998	60.54439400000000	0.11768000000000	0.00000000000000	0.14304600000000	0.00000000000000	0.00000000000000	0.00000000000000	0.00000000000000	0.00000000000000	0.00000000000000	0.00000000000000	22.06859800000000	0.00000000000000	0.00000000000000	0.00000000000000	0.00000000000000	
19.56825600000000	-23.92711300000000	734.31132900000000	60.56814100000000	0.11639900000000	0.00000000000000	0.14293500000000	0.00000000000000	0.00000000000000	0.00000000000000	0.00000000000000	0.00000000000000	0.00000000000000	0.00000000000000	22.16628000000000	0.00000000000000	0.00000000000000	0.00000000000000	0.00000000000000	
19.56992600000000	-24.66510900000000	735.65744099999995	60.59325900000000	0.11512100000000	0.00000000000000	0.14282200000000	0.00000000000000	0.00000000000000	0.00000000000000	0.00000000000000	0.00000000000000	0.00000000000000	0.00000000000000	22.26515500000000	0.00000000000000	0.00000000000000	0.00000000000000	0.00000000000000	
19.57159200000000	-25.40371200000000	737.02075400000001	60.61989900000000	0.11384700000000	0.00000000000000	0.14270900000000	0.00000000000000	0.00000000000000	0.00000000000000	0.00000000000000	0.00000000000000	0.00000000000000	0.00000000000000	22.36512800000000	0.00000000000000	0.00000000000000	0.00000000000000	0.00000000000000	
19.57325400000000	-26.14208300000000	738.40129899999999	60.64820400000000	0.11257900000000	0.00000000000000	0.14259500000000	0.00000000000000	0.00000000000000	0.00000000000000	0.00000000000000	0.00000000000000	0.00000000000000	0.00000000000000	22.46609100000000	0.00000000000000	0.00000000000000	0.00000000000000	0.00000000000000	
19.57492200000000	-26.87937200000000	739.79907200000002	60.67831600000000	0.11131900000000	0.00000000000000	0.14248000000000	0.00000000000000	0.00000000000000	0.00000000000000	0.00000000000000	0.00000000000000	0.00000000000000	0.00000000000000	22.56792800000000	0.00000000000000	0.00000000000000	0.00000000000000	0.00000000000000	
19.57660600000000	-27.61472200000000	741.21402699999999	60.71036500000000	0.11006800000000	0.00000000000000	0.14236400000000	0.00000000000000	0.00000000000000	0.00000000000000	0.00000000000000	0.00000000000000	0.00000000000000	0.00000000000000	22.67051500000000	0.00000000000000	0.00000000000000	0.00000000000000	0.00000000000000	
19.57825400000000	-28.34727300000000	742.64606800000001	60.74447700000000	0.10882800000000	0.00000000000000	0.14224700000000	0.00000000000000	0.00000000000000	0.00000000000000	0.00000000000000	0.00000000000000	0.00000000000000	0.00000000000000	22.77371700000000	0.00000000000000	0.00000000000000	0.00000000000000	0.00000000000000	
19.57992500000000	-29.07616400000000	744.09504700000002	60.78076900000000	0.10760100000000	0.00000000000000	0.14212900000000	0.00000000000000	0.00000000000000	0.00000000000000	0.00000000000000	0.00000000000000	0.00000000000000	0.00000000000000	22.87739000000000	0.00000000000000	0.00000000000000	0.00000000000000	0.00000000000000	
19.58158900000000	-29.80053700000000	745.56075699999997	60.81934600000000	0.10638800000000	0.00000000000000	0.14201000000000	0.00000000000000	0.00000000000000	0.00000000000000	0.00000000000000	0.00000000000000	0.00000000000000	0.00000000000000	22.98138000000000	0.00000000000000	0.00000000000000	0.00000000000000	0.00000000000000	
19.58325600000000	-30.51954100000000	747.04292199999998	60.86030700000000	0.10519000000000	0.00000000000000	0.14189000000000	0.00000000000000	0.00000000000000	0.00000000000000	0.00000000000000	0.00000000000000	0.00000000000000	0.00000000000000	23.08552800000000	0.00000000000000	0.00000000000000	0.00000000000000	0.00000000000000	
19.58492500000000	-31.23233300000000	748.54119900000001	60.90373800000000	0.10400900000000	0.00000000000000	0.14176900000000	0.00000000000000	0.00000000000000	0.00000000000000	0.00000000000000	0.00000000000000	0.00000000000000	0.00000000000000	23.18966300000000	0.00000000000000	0.00000000000000	0.00000000000000	0.00000000000000	
19.58659000000000	-31.93808600000000	750.05516899999998	60.94971500000000	0.10284600000000	0.00000000000000	0.14164700000000	0.00000000000000	0.00000000000000	0.00000000000000	0.00000000000000	0.00000000000000	0.00000000000000	0.00000000000000	23.29361000000000	0.00000000000000	0.00000000000000	0.00000000000000	0.00000000000000	
19.58825800000000	-32.63598600000000	751.58433100000002	60.99830200000000	0.10170200000000	0.00000000000000	0.14152300000000	0.00000000000000	0.00000000000000	0.00000000000000	0.00000000000000	0.00000000000000	0.00000000000000	0.00000000000000	23.39718400000000	0.00000000000000	0.00000000000000	0.00000000000000	0.00000000000000	
19.58992400000000	-33.32524000000000	753.12810100000002	61.04955300000000	0.10057800000000	0.00000000000000	0.14139800000000	0.00000000000000	0.00000000000000	0.00000000000000	0.00000000000000	0.00000000000000	0.00000000000000	0.00000000000000	23.50019500000000	0.00000000000000	0.00000000000000	0.00000000000000	0.00000000000000	
19.59158600000000	-34.00507700000000	754.68580499999996	61.10350900000000	0.09947500000000	0.00000000000000	0.14127200000000	0.00000000000000	0.00000000000000	0.00000000000000	0.00000000000000	0.00000000000000	0.00000000000000	0.00000000000000	23.60244900000000	0.00000000000000	0.00000000000000	0.00000000000000	0.00000000000000	
19.59325800000000	-34.67475200000000	756.25667699999997	61.16019800000000	0.09839300000000	0.00000000000000	0.14114500000000	0.00000000000000	0.00000000000000	0.00000000000000	0.00000000000000	0.00000000000000	0.00000000000000	0.00000000000000	23.70374500000000	0.00000000000000	0.00000000000000	0.00000000000000	0.00000000000000	
19.59492700000000	-35.33354600000000	757.83985499999994	61.21963800000000	0.09733400000000	0.00000000000000	0.14101600000000	0.00000000000000	0.00000000000000	0.00000000000000	0.00000000000000	0.00000000000000	0.00000000000000	0.00000000000000	23.80387900000000	0.00000000000000	0.00000000000000	0.00000000000000	0.00000000000000	
19.59659100000000	-35.98077400000000	759.43437500000005	61.28183200000000	0.09629800000000	0.00000000000000	0.14088600000000	0.00000000000000	0.00000000000000	0.00000000000000	0.00000000000000	0.00000000000000	0.00000000000000	0.00000000000000	23.90264400000000	0.00000000000000	0.00000000000000	0.00000000000000	0.00000000000000	
19.59825500000000	-36.61577900000000	761.03917400000000	61.34677400000000	0.09528500000000	0.00000000000000	0.14075500000000	0.00000000000000	0.00000000000000	0.00000000000000	0.00000000000000	0.00000000000000	0.00000000000000	0.00000000000000	23.99982900000000	0.00000000000000	0.00000000000000	0.00000000000000	0.00000000000000	
19.59991900000000	-37.23794500000000	762.65308400000004	61.41444300000000	0.09429500000000	0.00000000000000	0.14062200000000	0.00000000000000	0.00000000000000	0.00000000000000	0.00000000000000	0.00000000000000	0.00000000000000	0.00000000000000	24.09522500000000	0.00000000000000	0.00000000000000	0.00000000000000	0.00000000000000	
19.60159400000000	-37.84669000000000	764.27482999999995	61.48480600000000	0.09332900000000	0.00000000000000	0.14048800000000	0.00000000000000	0.00000000000000	0.00000000000000	0.00000000000000	0.00000000000000	0.00000000000000	0.00000000000000	24.18861900000000	0.00000000000000	0.00000000000000	0.00000000000000	0.00000000000000	
19.60325600000000	-38.44147300000000	765.90302999999994	61.55781900000000	0.09238700000000	0.00000000000000	0.14035200000000	0.00000000000000	0.00000000000000	0.00000000000000	0.00000000000000	0.00000000000000	0.00000000000000	0.00000000000000	24.27980000000000	0.00000000000000	0.00000000000000	0.00000000000000	0.00000000000000	
19.60492400000000	-39.02179200000000	767.53619400000002	61.63342600000000	0.09146900000000	0.00000000000000	0.14021500000000	0.00000000000000	0.00000000000000	0.00000000000000	0.00000000000000	0.00000000000000	0.00000000000000	0.00000000000000	24.36855900000000	0.00000000000000	0.00000000000000	0.00000000000000	0.00000000000000	
